# xmcd
#
# Track frame offsets:
#	150
#	16075
#	32925
#	46912
#	62325
#	83775
#	100125
#	117250
#	130300
#	151200
#
# Disc length: 2274 seconds
#
# Revision: 1
# Processed by: cddbd v1.5.1PL0 Copyright (c) Steve Scherf et al.
# Submitted via: EasyCDDAExtractor 7.0.6.1
#
DISCID=7208e00a
DTITLE=Simon Gallaher - Simon Gallaher  All In Good Time
DYEAR=1900
DGENRE=Pop
TTITLE0=Running Out Of Reasons To Go
TTITLE1=When Snow Turns To Rain
TTITLE2=Fools Gold Ring
TTITLE3=I Don't Need You
TTITLE4=My Friend Duest With Jackie Love
TTITLE5=And When I Think About You
TTITLE6=I'd Like To Love You
TTITLE7=Somebody
TTITLE8=Between Love And A Heartache
TTITLE9=It's Not All That Easy
EXTD=
EXTT0=
EXTT1=
EXTT2=
EXTT3=
EXTT4=
EXTT5=
EXTT6=
EXTT7=
EXTT8=
EXTT9=
PLAYORDER=
